<svg width="22" height="20" viewBox="0 0 22 20" fill="none" xmlns="http://www.w3.org/2000/svg">
<path d="M8.00002 17.5C8.7364 17.5 9.33335 16.9404 9.33335 16.25C9.33335 15.5596 8.7364 15 8.00002 15C7.26364 15 6.66669 15.5596 6.66669 16.25C6.66669 16.9404 7.26364 17.5 8.00002 17.5Z" fill="white"/>
<path d="M17.3333 17.5C18.0697 17.5 18.6667 16.9404 18.6667 16.25C18.6667 15.5596 18.0697 15 17.3333 15C16.597 15 16 15.5596 16 16.25C16 16.9404 16.597 17.5 17.3333 17.5Z" fill="white"/>
<path d="M7.65753 11.875H18.5467L20.1467 4.375H6.24545L5.89253 2.5H2.00003V3.75H4.7742L6.7742 14.375H18.6667V13.125H7.89253L7.65753 11.875Z" fill="white"/>
</svg>
