<svg width="22" height="20" viewBox="0 0 22 20" fill="none" xmlns="http://www.w3.org/2000/svg">
<path d="M11.0667 17.5C10.7991 17.4997 10.5377 17.4239 10.3167 17.2824C7.04211 15.1984 5.6242 13.7695 4.84211 12.8762C3.17545 10.9719 2.37753 9.0168 2.40003 6.89961C2.42628 4.47344 4.50253 2.5 7.02836 2.5C8.86503 2.5 10.1371 3.46992 10.8779 4.27773C10.9014 4.30307 10.9304 4.32338 10.963 4.3373C10.9955 4.35122 11.0309 4.35842 11.0667 4.35842C11.1025 4.35842 11.1379 4.35122 11.1704 4.3373C11.203 4.32338 11.232 4.30307 11.2554 4.27773C11.9963 3.46914 13.2684 2.5 15.105 2.5C17.6309 2.5 19.7071 4.47344 19.7334 6.9C19.7559 9.01758 18.9571 10.9727 17.2913 12.8766C16.5092 13.7699 15.0913 15.1988 11.8167 17.2828C11.5956 17.4241 11.3343 17.4998 11.0667 17.5Z" fill="white"/>
</svg>
