<svg width="22" height="20" viewBox="0 0 22 20" fill="none" xmlns="http://www.w3.org/2000/svg">
<path d="M8.1333 6.875V5.3125C8.1333 4.8981 8.3089 4.50067 8.62146 4.20765C8.93402 3.91462 9.35794 3.75 9.79997 3.75H16.4666C16.9087 3.75 17.3326 3.91462 17.6451 4.20765C17.9577 4.50067 18.1333 4.8981 18.1333 5.3125V14.6875C18.1333 15.1019 17.9577 15.4993 17.6451 15.7924C17.3326 16.0854 16.9087 16.25 16.4666 16.25H10.1333C9.21288 16.25 8.1333 15.5504 8.1333 14.6875V13.125" stroke="white" stroke-linecap="round" stroke-linejoin="round"/>
<path d="M12.1333 13.125L15.4666 10L12.1333 6.875M3.46664 10H14.8" stroke="white" stroke-linecap="round" stroke-linejoin="round"/>
</svg>
