<svg width="26" height="25" viewBox="0 0 26 25" fill="none" xmlns="http://www.w3.org/2000/svg">
<path d="M12.7948 1.5625C6.75476 1.5625 1.8573 6.58691 1.8573 12.7783C1.8573 17.7344 4.99207 21.9336 9.33777 23.418C9.39872 23.4312 9.46094 23.4378 9.52332 23.4375C9.92859 23.4375 10.0848 23.1396 10.0848 22.8809C10.0848 22.6123 10.0751 21.9092 10.0702 20.9717C9.70839 21.0565 9.33827 21.1007 8.96668 21.1035C6.86218 21.1035 6.38367 19.4678 6.38367 19.4678C5.88562 18.1738 5.16785 17.8271 5.16785 17.8271C4.2157 17.1582 5.16296 17.1387 5.23621 17.1387H5.24109C6.33972 17.2363 6.91589 18.3008 6.91589 18.3008C7.46277 19.2578 8.19519 19.5264 8.84949 19.5264C9.28212 19.5177 9.70806 19.4179 10.0995 19.2334C10.1971 18.5107 10.4803 18.0176 10.7928 17.7344C8.36609 17.4512 5.81238 16.4893 5.81238 12.1924C5.81238 10.9668 6.23718 9.96582 6.93542 9.18457C6.82312 8.90137 6.44714 7.75879 7.04285 6.21582C7.12275 6.1967 7.20488 6.18849 7.28699 6.19141C7.6825 6.19141 8.57605 6.34277 10.0507 7.36816C11.8424 6.86685 13.7374 6.86685 15.5292 7.36816C17.0038 6.34277 17.8973 6.19141 18.2928 6.19141C18.375 6.18849 18.4571 6.1967 18.537 6.21582C19.1327 7.75879 18.7567 8.90137 18.6444 9.18457C19.3427 9.9707 19.7675 10.9717 19.7675 12.1924C19.7675 16.499 17.2089 17.4463 14.7723 17.7246C15.163 18.0713 15.5145 18.7549 15.5145 19.7998C15.5145 21.2988 15.4999 22.5098 15.4999 22.876C15.4999 23.1396 15.6512 23.4375 16.0565 23.4375C16.1221 23.4378 16.1876 23.4312 16.2518 23.418C20.6024 21.9336 23.7323 17.7295 23.7323 12.7783C23.7323 6.58691 18.8348 1.5625 12.7948 1.5625Z" fill="black"/>
</svg>
