<svg width="26" height="25" viewBox="0 0 26 25" fill="none" xmlns="http://www.w3.org/2000/svg">
<path d="M22.3105 1.5625H4.05414C3.05658 1.5625 2.185 2.28027 2.185 3.26611V21.563C2.185 22.5542 3.05658 23.4375 4.05414 23.4375H22.3051C23.308 23.4375 24.06 22.5483 24.06 21.563V3.26611C24.0659 2.28027 23.308 1.5625 22.3105 1.5625ZM8.96576 19.7964H5.83197V10.0527H8.96576V19.7964ZM7.50726 8.57129H7.4848C6.48187 8.57129 5.83246 7.82471 5.83246 6.89014C5.83246 5.93848 6.49896 5.20947 7.52435 5.20947C8.54974 5.20947 9.17719 5.93311 9.19965 6.89014C9.19916 7.82471 8.54974 8.57129 7.50726 8.57129ZM20.4189 19.7964H17.2851V14.4688C17.2851 13.1924 16.829 12.3203 15.6953 12.3203C14.829 12.3203 14.3163 12.9063 14.0883 13.4771C14.0029 13.6821 13.9799 13.9614 13.9799 14.2466V19.7964H10.8461V10.0527H13.9799V11.4087C14.436 10.7593 15.1484 9.82471 16.8061 9.82471C18.8632 9.82471 20.4194 11.1807 20.4194 14.104L20.4189 19.7964Z" fill="black"/>
</svg>
