<svg width="20" height="20" viewBox="0 0 20 20" fill="none" xmlns="http://www.w3.org/2000/svg">
<path d="M7.85706 2.5L10 1.25L12.143 2.5" stroke="white" stroke-linecap="round" stroke-linejoin="round"/>
<path d="M10 1.25V4.375" stroke="white" stroke-miterlimit="10" stroke-linecap="round"/>
<path d="M12.143 17.5L10 18.75L7.85706 17.5" stroke="white" stroke-linecap="round" stroke-linejoin="round"/>
<path d="M10 18.75V15.625" stroke="white" stroke-miterlimit="10" stroke-linecap="round"/>
<path d="M2.5 8.10585V5.62499L4.57617 4.39413" stroke="white" stroke-linecap="round" stroke-linejoin="round"/>
<path d="M2.5 5.625L5.12852 7.1875" stroke="white" stroke-miterlimit="10" stroke-linecap="round"/>
<path d="M17.5 11.8941V14.375L15.4238 15.6059" stroke="white" stroke-linecap="round" stroke-linejoin="round"/>
<path d="M17.5 14.375L14.8715 12.8125" stroke="white" stroke-miterlimit="10" stroke-linecap="round"/>
<path d="M4.57617 15.625L2.5 14.375V11.8941" stroke="white" stroke-linecap="round" stroke-linejoin="round"/>
<path d="M2.5 14.375L5.10312 12.8125" stroke="white" stroke-miterlimit="10" stroke-linecap="round"/>
<path d="M15.4238 4.39413L17.5 5.62499V8.10585" stroke="white" stroke-linecap="round" stroke-linejoin="round"/>
<path d="M17.5 5.625L14.8715 7.1875M10 12.5V10M10 10L12.143 8.75M10 10L7.85706 8.75" stroke="white" stroke-miterlimit="10" stroke-linecap="round"/>
</svg>
